<?xml version="1.0" encoding="utf-8"?>
<!-- Generator: Adobe Illustrator 16.0.0, SVG Export Plug-In . SVG Version: 6.00 Build 0)  -->
<!DOCTYPE svg PUBLIC "-//W3C//DTD SVG 1.1//EN" "http://www.w3.org/Graphics/SVG/1.1/DTD/svg11.dtd">
<svg version="1.1" id="Layer_1" xmlns="http://www.w3.org/2000/svg" xmlns:xlink="http://www.w3.org/1999/xlink" x="0px" y="0px"
	 width="568.291px" height="144px" viewBox="0 0 568.291 144" enable-background="new 0 0 568.291 144" xml:space="preserve">
<g>
	<g>
		<g>
			<g>
				<g>
					<polygon fill="#231F20" points="0,21.297 22.215,21.297 22.215,102.206 63.342,102.206 63.342,122.703 0,122.703 					"/>
					<g>
						<path fill="#231F20" d="M73.154,53.955h21.352v68.721H73.154V53.955z M83.83,19.794c6.837,0,12.386,5.549,12.386,12.38
							c0,6.843-5.549,12.376-12.386,12.376c-6.829,0-12.378-5.534-12.378-12.376C71.451,25.344,77,19.794,83.83,19.794"/>
					</g>
					<polygon fill="#231F20" points="183.755,21.29 205.099,21.29 205.099,81.897 229.277,53.924 255.444,53.924 227.442,85.742 
						254.859,122.703 228.029,122.703 205.376,88.732 205.099,88.732 205.099,122.703 183.755,122.703 					"/>
					<path fill="#231F20" d="M106.314,53.964h20.495v9.394h0.286c2.844-5.409,9.82-11.1,20.209-11.1
						c21.638,0,25.622,14.232,25.622,32.731v37.687h-21.351V89.263c0-7.974-0.146-18.217-11.107-18.217
						c-11.1,0-12.802,8.684-12.802,17.647v33.983h-21.351V53.964z"/>
					<path fill="#231F20" d="M300.386,80.326c0.14-7.117-5.411-13.096-13.104-13.096c-9.389,0-14.517,6.405-15.08,13.096H300.386z
						 M318.457,110.778c-6.833,8.684-18.071,13.671-29.179,13.671c-21.346,0-38.427-14.241-38.427-36.302
						c0-22.058,17.082-36.29,38.427-36.29c19.942,0,32.456,14.231,32.456,36.29v6.69h-49.531c1.695,8.114,7.825,13.38,16.082,13.38
						c6.977,0,11.67-3.56,15.229-8.399L318.457,110.778z"/>
					<path fill="#231F20" d="M366.199,70.573c-10.667,0-17.07,7.122-17.07,17.503c0,10.399,6.403,17.507,17.07,17.507
						c10.683,0,17.09-7.107,17.09-17.507C383.289,77.694,376.882,70.573,366.199,70.573 M402.936,122.665h-19.646v-9.112h-0.277
						c-3.284,4.98-11.532,10.819-21.214,10.819c-20.502,0-34.021-14.797-34.021-35.723c0-19.217,11.955-36.866,31.596-36.866
						c8.833,0,17.086,2.417,21.927,9.108h0.277V21.29h21.359V122.665z"/>
				</g>
				<path fill="#0077B5" d="M557.632,0H434.916c-5.864,0-10.629,4.648-10.629,10.376V133.61c0,5.734,4.765,10.39,10.629,10.39
					h122.716c5.874,0,10.659-4.655,10.659-10.39V10.376C568.291,4.648,563.506,0,557.632,0z"/>
				<path fill="#FFFFFF" d="M445.638,53.985h21.359v68.722h-21.359V53.985z M456.322,19.825c6.828,0,12.377,5.549,12.377,12.38
					c0,6.837-5.549,12.386-12.377,12.386c-6.846,0-12.387-5.549-12.387-12.386C443.936,25.375,449.477,19.825,456.322,19.825"/>
				<path fill="#FFFFFF" d="M480.394,53.985h20.485v9.39h0.286c2.852-5.403,9.818-11.099,20.209-11.099
					c21.628,0,25.621,14.234,25.621,32.736v37.694h-21.344v-33.42c0-7.969-0.146-18.22-11.099-18.22
					c-11.113,0-12.819,8.681-12.819,17.644v33.996h-21.34V53.985z"/>
			</g>
		</g>
	</g>
</g>
</svg>
