<?xml version="1.0" encoding="UTF-8" standalone="no"?>
<!DOCTYPE svg PUBLIC "-//W3C//DTD SVG 1.1//EN" "http://www.w3.org/Graphics/SVG/1.1/DTD/svg11.dtd">
<svg width="100%" height="100%" viewBox="0 0 436 436" version="1.1" xmlns="http://www.w3.org/2000/svg" xmlns:xlink="http://www.w3.org/1999/xlink" xml:space="preserve" xmlns:serif="http://www.serif.com/" style="fill-rule:evenodd;clip-rule:evenodd;stroke-linecap:round;stroke-linejoin:round;stroke-miterlimit:1.5;">
    <g>
        <g transform="matrix(1,0,0,1,-15.2021,-37.2098)">
            <text x="36.317px" y="430.967px" style="font-family:'IBMPlexSans', 'IBM Plex Sans', sans-serif;font-size:288px;">V</text>
        </g>
        <path d="M428.581,47.899C428.581,24.848 409.866,6.134 386.815,6.134L47.952,6.134C24.901,6.134 6.186,24.848 6.186,47.899L6.186,386.763C6.186,409.814 24.901,428.528 47.952,428.528L386.815,428.528C409.866,428.528 428.581,409.814 428.581,386.763L428.581,47.899Z" style="fill:none;stroke:black;stroke-width:9.5px;"/>
        <g transform="matrix(1.09114,0,0,1.09114,295.547,194.793)">
            <g transform="matrix(1,0,0,1,-109.492,-109.492)">
                <clipPath id="_clip1">
                    <rect x="0" y="0" width="218.983" height="218.983"/>
                </clipPath>
                <g clip-path="url(#_clip1)">
                    <path d="M217.952,191.519L188.374,141.043C186.285,137.478 181.705,136.274 178.134,138.352L161.014,148.307L152.782,124.582C151.832,121.844 149.389,119.899 146.509,119.584C143.633,119.274 140.824,120.644 139.307,123.112L116.992,159.416L116.992,116.971L151.769,96.892C154.089,95.552 155.519,93.077 155.519,90.397L155.519,45.912C155.519,43.232 154.089,40.757 151.769,39.417L113.242,17.173C110.922,15.833 108.062,15.833 105.742,17.173L67.214,39.417C64.894,40.757 63.464,43.232 63.464,45.912L63.464,90.398C63.464,93.078 64.894,95.553 67.214,96.893L101.991,116.972L101.991,159.417L79.676,123.113C78.158,120.644 75.349,119.275 72.473,119.585C69.592,119.899 67.15,121.845 66.201,124.583L57.97,148.307L40.851,138.353C37.281,136.275 32.701,137.479 30.61,141.044L1.03,191.52C-1.064,195.094 0.135,199.688 3.709,201.783C4.901,202.482 6.206,202.813 7.494,202.813C10.069,202.813 12.576,201.486 13.972,199.104L39.773,155.076L52.961,162.745L42.515,192.854C41.158,196.767 43.229,201.04 47.143,202.397C47.957,202.68 48.786,202.813 49.602,202.813C52.707,202.813 55.612,200.869 56.687,197.77L66.173,170.427L105.721,193.424C108.051,194.779 110.93,194.78 113.26,193.424L152.81,170.427L162.297,197.77C163.655,201.683 167.929,203.757 171.841,202.397C175.755,201.04 177.826,196.767 176.469,192.853L166.023,162.744L179.211,155.075L205.01,199.102C207.104,202.676 211.699,203.875 215.273,201.781C218.847,199.688 220.047,195.093 217.952,191.519ZM78.464,50.242L109.491,32.328L140.518,50.242L140.518,86.068L109.491,103.982L78.464,86.068L78.464,50.242ZM75.185,144.451L88.449,166.029L71.182,155.989L75.185,144.451ZM130.534,166.03L143.798,144.451L147.802,155.99L130.534,166.03Z" style="fill-rule:nonzero;"/>
                </g>
            </g>
        </g>
    </g>
</svg>
