<?xml version="1.0" encoding="UTF-8" standalone="no"?>
<!DOCTYPE svg PUBLIC "-//W3C//DTD SVG 1.1//EN" "http://www.w3.org/Graphics/SVG/1.1/DTD/svg11.dtd">
<svg width="100%" height="100%" viewBox="0 0 96 32" version="1.1" xmlns="http://www.w3.org/2000/svg" xmlns:xlink="http://www.w3.org/1999/xlink" xml:space="preserve" xmlns:serif="http://www.serif.com/" style="fill-rule:evenodd;clip-rule:evenodd;stroke-linejoin:round;stroke-miterlimit:2;">
    <g transform="matrix(0.997378,0,0,0.950027,-0.0120231,0.609058)">
        <path d="M95.89,4.815C95.89,2.361 93.993,0.369 91.655,0.369L4.509,0.369C2.172,0.369 0.274,2.361 0.274,4.815L0.274,27.468C0.274,29.922 2.172,31.915 4.509,31.915L91.655,31.915C93.993,31.915 95.89,29.922 95.89,27.468L95.89,4.815Z" style="fill:rgb(0,124,130);"/>
    </g>
    <g transform="matrix(0.879064,0,0,0.879064,0.993576,1.89741)">
        <path d="M1.972,3.936C1.972,1.836 8.24,0.133 15.972,0.133C23.704,0.133 29.972,1.836 29.972,3.936C29.972,6.036 23.704,7.739 15.972,7.739C8.24,7.739 1.972,6.036 1.972,3.936ZM15.972,12.132C22.492,12.132 27.955,11.175 29.513,9.882C29.801,10.282 29.972,10.7 29.972,11.132C29.972,13.892 23.704,16.132 15.972,16.132C8.24,16.132 1.972,13.892 1.972,11.132C1.972,10.7 2.142,10.282 2.431,9.882C3.988,11.175 9.451,12.132 15.972,12.132ZM15.972,28.132C22.492,28.132 27.955,27.175 29.513,25.882C29.801,26.282 29.972,26.7 29.972,27.132C29.972,29.698 24.554,31.814 17.579,32.099L17.547,32.1C17.03,32.12 16.505,32.132 15.972,32.132C15.439,32.132 14.914,32.12 14.397,32.1L14.364,32.099C7.389,31.814 1.972,29.697 1.972,27.132C1.972,26.7 2.142,26.282 2.431,25.882C3.988,27.175 9.451,28.132 15.972,28.132ZM15.972,24.382C8.24,24.382 1.972,22.142 1.972,19.382C1.972,18.95 2.142,18.532 2.431,18.132C3.988,19.425 9.452,20.382 15.972,20.382C22.492,20.382 27.955,19.425 29.513,18.132C29.801,18.532 29.972,18.95 29.972,19.382C29.972,22.142 23.704,24.382 15.972,24.382Z" style="fill:white;fill-rule:nonzero;"/>
    </g>
    <g transform="matrix(0.753466,0,0,0.753466,6.72288,4.22929)">
        <text x="30.579px" y="27.146px" style="font-family:'IBMPlexSans', 'IBM Plex Sans', sans-serif;font-size:32.517px;fill:white;">MET<tspan x="92.427px " y="27.146px ">A</tspan></text>
    </g>
</svg>
