<?xml version="1.0" encoding="UTF-8" standalone="no"?>
<!DOCTYPE svg PUBLIC "-//W3C//DTD SVG 1.1//EN" "http://www.w3.org/Graphics/SVG/1.1/DTD/svg11.dtd">
<svg width="100%" height="100%" viewBox="0 0 436 436" version="1.1" xmlns="http://www.w3.org/2000/svg" xmlns:xlink="http://www.w3.org/1999/xlink" xml:space="preserve" xmlns:serif="http://www.serif.com/" style="fill-rule:evenodd;clip-rule:evenodd;stroke-linecap:round;stroke-linejoin:round;stroke-miterlimit:1.5;">
    <g>
        <g transform="matrix(1,0,0,1,31.6897,-21.6435)">
            <g transform="matrix(0.683103,0,0,0.683103,2.437,11.994)">
                <path d="M435.609,240.566C434.902,235.089 429.882,231.22 424.41,231.93L415.203,233.119C412.129,221.339 406.945,210.258 399.87,200.334L410.216,191.424C414.402,187.82 414.872,181.506 411.268,177.321C407.664,173.136 401.349,172.664 397.165,176.269L386.712,185.271C384.665,183.346 382.532,181.489 380.307,179.713C366.173,168.434 351.558,157.808 336.535,147.841L338.939,146.359C343.64,143.461 345.101,137.3 342.203,132.599C339.307,127.899 333.146,126.436 328.443,129.335L317.808,135.892C303.822,127.319 289.509,119.318 274.92,111.895L279,101.501C281.018,96.36 278.486,90.556 273.345,88.539C268.204,86.519 262.401,89.054 260.383,94.194L256.893,103.087C237.551,94.023 217.766,85.971 197.632,78.977L201.529,74.06C204.96,69.732 204.232,63.442 199.904,60.012C195.576,56.582 189.287,57.309 185.855,61.637L177.377,72.332C166.646,69.019 155.828,66.007 144.938,63.298L147.516,49.714C148.546,44.288 144.983,39.054 139.556,38.025C134.129,36.996 128.898,40.561 127.868,45.985L125.437,58.792C120.887,57.82 116.329,56.883 111.758,56.018C96.28,53.09 80.691,54.978 66.664,61.29L62.604,53.314C60.098,48.391 54.076,46.435 49.156,48.938C44.234,51.443 42.275,57.464 44.78,62.386L49.601,71.858C44.378,76.12 39.798,80.986 35.951,86.357L22.45,79.055C17.592,76.428 11.524,78.236 8.896,83.094C6.269,87.951 8.077,94.02 12.934,96.647L26.59,104.034C24.946,108.494 23.696,113.139 22.895,117.938L22.646,119.432C16.83,154.313 35.723,188.237 68.594,201.928C75.168,204.666 81.665,207.57 88.085,210.62L84.048,215.403C80.486,219.624 81.021,225.933 85.241,229.494C87.118,231.078 89.407,231.852 91.685,231.852C94.529,231.852 97.354,230.645 99.332,228.302L106.442,219.877C109.9,221.723 113.336,223.61 116.74,225.546L115.728,236.97C115.241,242.471 119.305,247.326 124.806,247.813C125.107,247.84 125.405,247.853 125.701,247.853C130.825,247.853 135.189,243.936 135.65,238.735L135.8,237.043C173.639,261.18 207.588,290.987 235.992,325.276C250.463,342.745 270.071,354.753 291.905,359.703L289.984,367.443C288.653,372.803 291.92,378.227 297.28,379.558C298.09,379.759 298.899,379.855 299.697,379.855C304.184,379.855 308.265,376.813 309.394,372.262L311.893,362.196C312.736,362.217 313.579,362.238 314.421,362.238C335.29,362.238 355.642,355.767 372.854,343.475L376.222,341.069C388.552,332.264 398.491,321.118 405.63,308.429L412.879,315.173C414.805,316.965 417.25,317.852 419.689,317.852C422.369,317.852 425.043,316.781 427.012,314.664C430.774,310.621 430.546,304.293 426.502,300.531L414.004,288.904C416.68,280.204 418.204,271.06 418.455,261.655C418.534,258.712 418.485,255.788 418.318,252.888L426.972,251.77C432.45,251.057 436.317,246.043 435.609,240.566ZM364.6,324.79L361.232,327.196C344.463,339.172 323.975,344.252 303.541,341.503C283.126,338.756 264.608,328.461 251.397,312.513C204.963,256.459 144.41,211.834 76.284,183.46C52.038,173.362 38.094,148.383 42.375,122.715L42.624,121.223C45.107,106.331 53.294,93.371 65.676,84.731C75.162,78.112 86.178,74.671 97.492,74.671C100.99,74.671 104.518,75 108.037,75.667C202.227,93.499 292.063,134.884 367.833,195.347C387.985,211.428 399.149,235.4 398.463,261.117C397.78,286.701 385.438,309.908 364.6,324.79Z" style="fill-rule:nonzero;"/>
            </g>
            <path d="M264.932,233.748C316.14,298.016 256.486,293.749 285.963,351.582C312.204,403.069 352.671,367.105 376.237,412.492" style="fill:none;stroke:black;stroke-width:14px;"/>
        </g>
        <g transform="matrix(1,0,0,1,-15.2021,-37.2098)">
            <text x="36.317px" y="430.967px" style="font-family:'IBMPlexSans', 'IBM Plex Sans', sans-serif;font-size:288px;">P</text>
        </g>
        <path d="M428.581,47.899C428.581,24.848 409.866,6.134 386.815,6.134L47.952,6.134C24.901,6.134 6.186,24.848 6.186,47.899L6.186,386.763C6.186,409.814 24.901,428.528 47.952,428.528L386.815,428.528C409.866,428.528 428.581,409.814 428.581,386.763L428.581,47.899Z" style="fill:none;stroke:black;stroke-width:9.5px;"/>
    </g>
</svg>
