<?xml version="1.0" encoding="UTF-8"?> <svg xmlns="http://www.w3.org/2000/svg" width="1225.85708" height="318.99199"><defs><style> .a{fill:#2e2d62} </style></defs><path class="a" d="M0 35.52854h283.46325v283.46324H0z"></path><path d="M252.26714 66.72452H219.2159l-44.43267 47.31626V66.72452h-64.20688v62.81185c0 13.44694-9.95655 21.25376-23.16457 21.25376s-23.165-7.80682-23.165-21.25376V66.72452H31.19547v63.29176c0 28.34575 22.88515 44.60633 48.7014 47.24387h-48.7014v110.53561h33.05127v-40.96585H78.6845l30.5426 40.96561h143.04v-22.32584h-38.742v-65.88362h38.742v-29.16162l-47.3741-48.50868 47.37411-48.35553Zm-110.5356 76.72031v51.28163c-7.03741-11.88409-23.22232-17.4019-47.24379-17.46236 21.43509-2.17683 41.25094-13.7415 47.24379-33.81927Zm-77.48475 56.14123h30.24084c12.43256 0 17.471 4.81925 17.471 12.3824s-5.03842 12.53562-17.471 12.53562H64.24679Zm116.22714 65.88362h-38.74239v15.49018l-27.26922-35.73877c20.76256-3.82233 31.48463-14.55826 31.48463-33.25263a36.83283 36.83283 0 0 0-1.95518-12.38238h36.48213Zm38.742-88.20953h-44.4327V129.8126Z" fill="#fff"></path><path fill="#00bed5" d="M340.927 35.526 306.234 0h-22.771v318.992h195.786V177.159L340.927 35.526z"></path><path fill="#008aad" d="m340.927 35.526 138.322 141.633v141.833h87.678V35.526h-226z"></path><path class="a" d="M698.65493 122.94075h-10.38574V85.50521h-.64356l-14.00781 30.99511h-10.707L648.822 85.50521h-.64355v37.43554h-10.3858V66.58724h13.042l17.14746 38.64258h.64453L685.693 66.58724h12.96191ZM740.89028 122.94075l-11.7539-21.97851h-9.17676v21.97851h-10.38574V66.58724h22.2998c11.27148 0 18.19434 6.68164 18.19434 16.584a16.27277 16.27277 0 0 1-10.86817 15.85936l12.96192 23.91015Zm-20.93066-30.99511h10.707c5.47461 0 8.77441-3.46094 8.77441-8.21094 0-4.99121-3.2998-8.13086-8.77441-8.13086h-10.707ZM783.90981 123.74544c-17.22754 0-27.69336-12.15625-27.69336-28.74023 0-17.06739 11.10938-29.22364 27.69336-29.22364 12.71973 0 22.86328 6.7627 24.7959 19.24122h-11.43164c-1.77148-5.79688-6.52148-9.419-13.36426-9.419-10.0625 0-16.82519 8.45216-16.82519 19.40138 0 11.35156 7.24511 18.91894 16.82519 18.91894 7.32617 0 12.47852-3.623 14.25-9.09765h11.43164c-1.85156 12.07621-12.63964 18.91898-25.68164 18.91898ZM885.903 66.58724v56.35351h-10.86819L849.6755 85.264h-.64356v37.67675h-10.3858V66.58724h10.86817l25.35937 37.918h.64453v-37.918ZM933.40493 115.21224v7.72851h-4.34766c-3.7832 0-6.76269-1.127-8.13086-4.83006-2.7373 3.46094-6.92382 5.63477-13.2832 5.63477-8.21191 0-14.25-3.86426-14.25-11.834 0-7.72852 5.877-11.5127 13.28418-12.23731l12.55861-1.28808v-1.69043c0-4.42774-2.81738-6.60157-6.76269-6.60157-4.34668 0-6.60156 2.415-7.24512 6.03809h-10.30471c.80469-8.37207 7.24512-14.249 17.54981-14.249 9.41894 0 17.06738 4.749 17.06738 15.53711v14.73243c0 2.09375.96582 3.05957 2.89844 3.05957ZM919.236 105.471l-9.0166.96582c-3.70312.40234-6.52148 1.93261-6.52148 5.07226 0 3.21973 2.49609 4.34668 5.71582 4.34668 4.34766 0 9.82226-2.09277 9.82226-8.45312ZM941.99184 111.99154V90.81868h-8.61425v-8.13086h2.7373c4.91113 0 6.84277-1.77148 6.84277-6.11815v-4.83008h9.33887v10.94823h10.5459v8.13086h-10.5459v19.80469c0 2.25391.56348 4.99121 5.39356 4.99121a16.6541 16.6541 0 0 0 3.94531-.56347v7.80859a31.17663 31.17663 0 0 1-7.085.88574c-11.27047 0-12.55856-7.32617-12.55856-11.7539ZM965.55239 71.33626a6.35664 6.35664 0 0 1 6.36035-6.2793 6.21984 6.21984 0 0 1 6.19947 6.24011l-.00025.03919a6.30844 6.30844 0 0 1-6.19922 6.19922 6.452 6.452 0 0 1-6.36035-6.19922Zm1.208 11.35156h10.30469v40.25293h-10.30456ZM983.01235 102.73372c0-12.39746 9.17774-20.85058 21.25293-20.85058 12.07617 0 21.25391 8.5332 21.25391 20.85058 0 12.47852-9.09766 21.01172-21.25391 21.01172-11.99512 0-21.25293-8.61426-21.25293-21.01172Zm32.28223 0c0-6.68164-4.42774-11.915-11.0293-11.915-6.60058 0-10.94824 5.2334-10.94824 11.915 0 6.7627 4.34766 12.07617 10.94824 12.07617 6.68262 0 11.0293-5.31347 11.0293-12.07617ZM1031.73013 82.68782h9.41894l.88574 4.75h.64453c2.415-3.13963 5.7959-5.55468 11.834-5.55468 9.58008 0 15.69824 6.11816 15.69824 16.66406v24.39355h-10.30469V100.641c0-6.60157-3.7832-9.82227-8.61425-9.82227-4.91016 0-9.25782 3.13965-9.25782 10.30469v21.81738h-10.30468ZM1116.06509 115.21224v7.72851h-4.34766c-3.7832 0-6.7627-1.127-8.13086-4.83006-2.7373 3.46094-6.92383 5.63477-13.2832 5.63477-8.21192 0-14.25-3.86426-14.25-11.834 0-7.72852 5.87695-11.5127 13.28418-12.23731l12.55859-1.28808v-1.69043c0-4.42774-2.81738-6.60157-6.76269-6.60157-4.34668 0-6.60157 2.415-7.24512 6.03809h-10.30469c.80469-8.37207 7.24512-14.249 17.54981-14.249 9.41894 0 17.06738 4.749 17.06738 15.53711v14.73243c0 2.09375.96582 3.05957 2.89844 3.05957Zm-14.16895-9.74121-9.0166.96582c-3.70313.40234-6.52148 1.93261-6.52148 5.07226 0 3.21973 2.49609 4.34668 5.71582 4.34668 4.34765 0 9.82226-2.09277 9.82226-8.45312ZM1121.28677 65.78157h10.30468v57.15918h-10.30468ZM698.65493 205.44075h-10.38574v-37.43457h-.64356l-14.00781 30.99414h-10.707L648.822 168.00618h-.64355v37.43457h-10.3858v-56.35351h13.042l17.14746 38.64258h.64453l17.06636-38.64258h12.96191ZM706.32192 185.23372c0-12.39746 9.17774-20.85058 21.25293-20.85058 12.07617 0 21.25391 8.5332 21.25391 20.85058 0 12.47852-9.09668 21.01172-21.25391 21.01172-11.99512 0-21.25293-8.61328-21.25293-21.01172Zm32.28223 0c0-6.68164-4.42774-11.915-11.0293-11.915-6.60058 0-10.94824 5.2334-10.94824 11.915 0 6.7627 4.34766 12.07617 10.94824 12.07617 6.68262 0 11.0293-5.31347 11.0293-12.07617ZM793.19985 205.44075h-9.41894l-.88575-4.75h-.64355c-2.415 3.13965-5.79688 5.55469-11.835 5.55469-9.58008 0-15.69824-6.11816-15.69824-16.66406v-24.39356H765.023v22.29981c0 6.60156 3.78418 9.82226 8.69434 9.82226 4.83105 0 9.17773-3.13963 9.17773-10.30468v-21.81739h10.30475ZM799.47622 192.55989h9.90234c.56348 4.34766 3.78321 6.03809 7.88965 6.03809 3.13965 0 5.877-1.208 5.877-4.10644 0-3.0586-2.73731-4.34668-7.085-5.47364l-3.7832-.96582c-5.39453-1.28906-11.51269-3.46191-11.51269-11.35156 0-8.05078 7.084-12.31738 15.05468-12.31738 10.86817 0 15.85938 5.71582 16.42285 12.31738h-9.90235c-.40234-2.89844-2.65625-4.66992-6.44043-4.66992-3.13965 0-5.31348 1.53027-5.31348 4.10644 0 2.81739 2.73731 3.542 6.60157 4.58887l3.78418.96582c7.0039 1.77148 11.99511 4.99121 11.99511 12.55859 0 8.292-7.085 11.99512-15.61816 11.99512-11.35156 0-17.30859-5.39355-17.87207-13.68555ZM876.8063 192.721c-1.60938 8.292-8.53321 13.52441-18.75782 13.52441-11.99511 0-20.68945-8.13086-20.68945-20.52832 0-13.2832 9.17774-21.334 20.28711-21.334 9.90234 0 19.08008 6.2793 19.08008 20.68945 0 .9668-.08106 1.85157-.16113 2.9795h-28.98145c.40234 5.79589 4.18555 9.98242 10.46484 9.98242 4.50879 0 7.72852-1.85156 8.85547-5.31348Zm-29.14258-11.59278H866.904c-.24121-4.99121-3.94433-8.5332-9.25781-8.5332a9.71292 9.71292 0 0 0-9.98242 8.53323ZM958.27212 174.849v30.59178H949.819l-1.0459-5.39355h-.64453c-2.2539 2.25391-7.64843 6.19824-16.82519 6.19824-16.2627 0-26.64746-11.67285-26.64746-28.17676 0-17.14746 11.67285-29.78711 28.5791-29.78711 14.49121 0 23.02441 7.97071 24.55371 18.03321h-11.5918c-1.6914-5.07129-6.28027-8.21094-12.96191-8.21094-10.86817 0-17.71094 8.45313-17.71094 19.96484 0 10.86817 6.2793 18.67774 17.14746 18.67774 8.37305 0 15.05469-3.70313 15.05469-11.19043v-2.415h-14.97462v-8.292ZM1005.38638 192.721c-1.60938 8.292-8.53321 13.52441-18.75782 13.52441-11.99511 0-20.68945-8.13086-20.68945-20.52832 0-13.2832 9.17773-21.334 20.28711-21.334 9.90234 0 19.08008 6.2793 19.08008 20.68945 0 .9668-.08106 1.85157-.16114 2.9795h-28.98144c.40234 5.79589 4.18555 9.98242 10.46484 9.98242 4.50879 0 7.72852-1.85156 8.85547-5.31348Zm-29.14258-11.59278h19.2402c-.24121-4.99121-3.94433-8.5332-9.25781-8.5332a9.71292 9.71292 0 0 0-9.98242 8.53323ZM1011.91274 165.18782h9.41895l.88574 4.75h.64453c2.415-3.13963 5.7959-5.55468 11.834-5.55468 9.58007 0 15.69824 6.11816 15.69824 16.66406v24.39355h-10.3047V183.141c0-6.60157-3.7832-9.82227-8.61426-9.82227-4.91015 0-9.25781 3.13965-9.25781 10.30469v21.81738h-10.30469ZM1095.82 192.721c-1.60938 8.292-8.5332 13.52441-18.75781 13.52441-11.99512 0-20.68946-8.13086-20.68946-20.52832 0-13.2832 9.17774-21.334 20.28711-21.334 9.90235 0 19.08008 6.2793 19.08008 20.68945 0 .9668-.08105 1.85157-.16113 2.9795h-28.98145c.40235 5.79589 4.18555 9.98242 10.46485 9.98242 4.50879 0 7.72851-1.85156 8.85547-5.31348Zm-29.14258-11.59278h19.24024c-.24122-4.99121-3.94434-8.5332-9.25782-8.5332a9.71292 9.71292 0 0 0-9.98242 8.53323ZM1106.70962 194.49154v-21.17286h-8.61426v-8.13086h2.7373c4.91114 0 6.84278-1.77049 6.84278-6.11816v-4.83008h9.33887v10.94824h10.54589v8.13086h-10.54589v19.80469c0 2.25391.56347 4.99121 5.39355 4.99121a16.654 16.654 0 0 0 3.94531-.56347v7.80957a31.2409 31.2409 0 0 1-7.085.88476c-11.27047 0-12.55855-7.32519-12.55855-11.7539ZM1130.27114 153.83724a6.356 6.356 0 0 1 6.35938-6.28028 6.22 6.22 0 0 1 6.19946 6.24045l-.00025.03983a6.30765 6.30765 0 0 1-6.19921 6.19824 6.45037 6.45037 0 0 1-6.35938-6.19824Zm1.207 11.35058h10.30469v40.25293h-10.30469ZM1147.73013 185.47591c0-12.63965 9.17773-21.09277 20.93164-21.09277 9.33789 0 18.19433 4.99121 19.48242 15.53711h-10.30469c-.88574-3.70313-4.34766-6.60157-9.17773-6.60157-6.11914 0-10.627 4.99219-10.627 12.15723 0 7.084 4.18653 11.834 10.78809 11.834 4.66894 0 7.80859-2.09375 9.09668-5.79688h10.38476c-1.36816 9.01661-9.0166 14.73243-19.48144 14.73243-12.55953-.00002-21.09273-8.6133-21.09273-20.76955ZM1192.36684 192.55989h9.90235c.56347 4.34766 3.7832 6.03809 7.88965 6.03809 3.13964 0 5.87695-1.208 5.87695-4.10644 0-3.0586-2.73731-4.34668-7.085-5.47364l-3.7832-.96582c-5.39454-1.28906-11.5127-3.46191-11.5127-11.35156 0-8.05078 7.084-12.31738 15.05469-12.31738 10.86816 0 15.85937 5.71582 16.42285 12.31738h-9.90234c-.40235-2.89844-2.65625-4.66992-6.44043-4.66992-3.13965 0-5.31348 1.53027-5.31348 4.10644 0 2.81739 2.7373 3.542 6.60156 4.58887l3.78418.96582c7.00391 1.77148 11.99512 4.99121 11.99512 12.55859 0 8.292-7.085 11.99512-15.61817 11.99512-11.35152 0-17.30855-5.39355-17.87203-13.68555ZM685.04946 231.58724v56.35351H674.1813L648.82192 250.264h-.64355v37.67675h-10.38574v-56.35351h10.86816l25.35937 37.918h.64454v-37.918ZM732.277 275.221c-1.60937 8.292-8.5332 13.52441-18.75781 13.52441-11.99512 0-20.68946-8.13086-20.68946-20.52832 0-13.2832 9.17774-21.334 20.28711-21.334 9.90235 0 19.08008 6.27929 19.08008 20.68945 0 .9668-.08105 1.85156-.16113 2.97949h-28.98145c.40235 5.7959 4.18555 9.98242 10.46485 9.98242 4.50879 0 7.72851-1.85156 8.85547-5.31347Zm-29.14252-11.59275h19.24024c-.24121-4.99121-3.94434-8.5332-9.25781-8.5332a9.71292 9.71292 0 0 0-9.98243 8.5332ZM743.16665 276.99154v-21.17286h-8.61426v-8.13086h2.73731c4.91113 0 6.84277-1.7705 6.84277-6.11816v-4.83008h9.33887v10.94824h10.54589v8.13086h-10.54589v19.80469c0 2.25391.56347 4.99121 5.39355 4.99121a16.65417 16.65417 0 0 0 3.94531-.56347v7.80957a31.24085 31.24085 0 0 1-7.085.88476c-11.27047 0-12.55855-7.32519-12.55855-11.7539ZM766.5505 247.68782h9.5l6.84277 28.499h.64453l7.56739-25.92285h10.707l7.4873 26.0039h.64356l6.76269-28.58008h9.58008l-10.86816 40.25293h-11.27054l-7.40723-26.24511h-.64355l-7.56734 26.24511h-11.2705ZM827.83559 267.73372c0-12.39746 9.17774-20.85058 21.25293-20.85058 12.07618 0 21.25391 8.5332 21.25391 20.85058 0 12.47852-9.09668 21.01172-21.25391 21.01172-11.99505 0-21.25293-8.61328-21.25293-21.01172Zm32.28223 0c0-6.68164-4.42773-11.915-11.0293-11.915-6.60058 0-10.94824 5.2334-10.94824 11.915 0 6.7627 4.34766 12.07617 10.94824 12.07617 6.68262 0 11.0293-5.31347 11.0293-12.07617ZM876.55337 247.68782h9.33886l.96583 5.71582h.64453c2.49511-4.02539 5.23242-6.5205 11.99511-6.5205h2.89844v10.30468a26.38453 26.38453 0 0 0-4.34766-.32226c-8.85546 0-11.19042 6.52148-11.19042 12.31738v18.75781h-10.30469ZM927.72036 263.70833l16.42383 24.23242h-11.35156L920.79751 270.471l-4.18653 4.02539v13.44433H906.3063v-57.15915h10.3047v30.834h.64454l14.49023-13.92774h12.39844Z"></path></svg> 